<?xml version="1.0" standalone="no"?>
<!DOCTYPE svg PUBLIC "-//W3C//DTD SVG 20010904//EN"
 "http://www.w3.org/TR/2001/REC-SVG-20010904/DTD/svg10.dtd">
<svg version="1.0" xmlns="http://www.w3.org/2000/svg"
 width="200.000000pt" height="200.000000pt" viewBox="0 0 200.000000 200.000000"
 preserveAspectRatio="xMidYMid meet">
<metadata>
Created by potrace 1.10, written by Peter Selinger 2001-2011
</metadata>
<g transform="translate(0.000000,200.000000) scale(0.100000,-0.100000)"
fill="#e06666" stroke="none">
<path d="M892 1599 c-218 -36 -381 -264 -343 -480 38 -220 224 -370 440 -357
364 24 531 447 282 711 -62 66 -129 103 -218 122 -76 16 -85 16 -161 4z m18
-39 c-17 -13 -40 -19 -70 -19 l-45 1 40 19 c22 10 54 18 70 19 l30 0 -25 -20z
m190 -3 l35 -15 -38 -1 c-35 -1 -97 22 -97 36 0 9 61 -3 100 -20z m-85 -19
c21 -16 43 -22 79 -23 62 -1 71 -6 97 -56 11 -22 32 -45 47 -51 52 -22 62 -38
62 -92 0 -38 6 -61 25 -88 14 -20 25 -43 25 -50 0 -7 -11 -30 -25 -50 -18 -27
-25 -50 -25 -87 0 -54 -11 -71 -58 -90 -17 -7 -39 -30 -52 -54 -30 -54 -35
-57 -95 -57 -33 0 -60 -7 -80 -20 -38 -25 -62 -25 -100 0 -20 13 -47 20 -82
20 -57 0 -73 11 -98 65 -10 19 -29 38 -47 46 -48 20 -58 36 -58 93 0 40 -6 60
-25 86 -31 42 -31 52 0 98 19 27 25 50 25 88 0 54 10 70 62 92 15 6 36 29 47
50 27 53 39 60 96 59 39 -2 57 3 79 21 36 28 66 28 101 0z m-292 -60 c-10 -18
-34 -41 -52 -52 l-34 -19 18 27 c15 23 73 76 83 76 2 0 -5 -14 -15 -32z m517
-5 c23 -20 45 -44 51 -54 8 -16 5 -16 -30 3 -22 12 -45 34 -55 54 -8 19 -14
34 -11 34 3 0 23 -16 45 -37z m113 -179 c18 -62 7 -92 -17 -46 -15 30 -20 120
-5 105 4 -4 14 -31 22 -59z m-759 -40 c-23 -48 -29 -28 -13 39 12 49 13 51 21
25 7 -20 5 -37 -8 -64z m0 -146 c18 -34 21 -68 7 -68 -10 0 -31 54 -31 81 0
27 6 24 24 -13z m762 -21 c-4 -24 -13 -53 -21 -63 -14 -17 -15 -16 -12 21 3
40 26 99 35 91 2 -3 1 -25 -2 -49z m-76 -157 c-20 -27 -80 -78 -80 -66 0 29
57 84 98 95 2 1 -6 -12 -18 -29z m-578 -20 c17 -17 27 -34 24 -37 -4 -4 -23
10 -44 30 -20 20 -31 37 -24 37 8 0 27 -14 44 -30z m191 -104 c9 -7 17 -16 17
-19 0 -7 -89 18 -98 27 -12 12 64 5 81 -8z m211 4 c-6 -6 -28 -13 -50 -16 -37
-5 -38 -4 -20 10 22 18 87 23 70 6z"/>
<path d="M967 1503 c-9 -9 22 -43 40 -43 19 0 16 20 -4 36 -21 15 -27 17 -36
7z"/>
<path d="M860 1481 c-7 -14 -7 -22 1 -26 11 -8 40 25 33 37 -9 14 -23 9 -34
-11z"/>
<path d="M1041 1414 c-25 -11 -31 -18 -23 -26 9 -9 21 -8 47 5 19 9 35 21 35
27 0 13 -18 11 -59 -6z"/>
<path d="M800 1401 c0 -5 11 -16 24 -25 30 -19 49 0 21 21 -21 15 -45 17 -45
4z"/>
<path d="M908 1389 c-20 -11 -25 -44 -5 -35 6 3 20 9 30 12 19 7 23 34 5 34
-7 0 -21 -5 -30 -11z"/>
<path d="M1122 1354 c2 -22 8 -38 13 -36 15 3 12 65 -3 70 -10 3 -13 -6 -10
-34z"/>
<path d="M1215 1370 c-8 -13 12 -40 31 -40 20 0 17 14 -5 34 -13 12 -21 14
-26 6z"/>
<path d="M716 1331 c-10 -10 -13 -22 -8 -25 10 -6 52 21 52 35 0 16 -26 10
-44 -10z"/>
<path d="M883 1310 c-88 -53 -88 -197 0 -250 70 -43 177 -17 213 52 36 69 10
162 -54 201 -41 23 -118 22 -159 -3z m153 -26 c33 -22 57 -79 50 -119 -26
-135 -216 -135 -242 1 -14 73 63 152 135 139 19 -4 44 -13 57 -21z"/>
<path d="M1160 1265 c-19 -23 -1 -39 21 -19 10 9 19 21 19 26 0 13 -27 9 -40
-7z"/>
<path d="M667 1254 c-9 -9 16 -44 30 -44 16 0 16 6 3 31 -11 19 -22 24 -33 13z"/>
<path d="M1237 1244 c-6 -6 11 -64 23 -78 5 -4 13 -5 18 -2 7 4 5 21 -5 46
-16 39 -23 46 -36 34z"/>
<path d="M727 1154 c-26 -14 -37 -34 -17 -34 16 0 60 23 60 31 0 16 -16 17
-43 3z"/>
<path d="M1150 1151 c0 -11 39 -41 52 -41 14 0 8 23 -9 36 -21 16 -43 18 -43
5z"/>
<path d="M1087 1074 c-7 -7 12 -64 22 -64 16 0 19 13 9 41 -10 28 -19 35 -31
23z"/>
<path d="M1212 1030 c-41 -54 -20 -71 22 -18 23 30 26 48 7 48 -4 0 -17 -13
-29 -30z"/>
<path d="M842 1025 c-7 -14 -12 -30 -12 -35 0 -17 27 -11 33 8 2 9 8 25 12 35
12 28 -20 21 -33 -8z"/>
<path d="M706 1032 c-3 -5 8 -21 23 -36 36 -34 54 -16 20 20 -24 25 -35 29
-43 16z"/>
<path d="M940 1017 c0 -8 11 -24 24 -36 32 -30 46 -8 15 25 -25 27 -39 31 -39
11z"/>
<path d="M1066 958 c-51 -26 -35 -47 18 -22 20 10 36 21 36 25 0 17 -17 16
-54 -3z"/>
<path d="M852 928 c-14 -14 -16 -38 -4 -38 14 0 43 36 35 43 -9 10 -17 9 -31
-5z"/>
<path d="M926 892 c-2 -4 4 -19 14 -32 25 -33 48 -15 24 18 -16 23 -29 28 -38
14z"/>
<path d="M1835 677 c-8 -13 -18 -37 -21 -55 -4 -17 -11 -30 -16 -29 -6 1 -13
-4 -15 -10 -3 -7 2 -13 11 -13 34 0 3 -65 -34 -70 -38 -6 -43 2 -12 20 17 11
32 24 32 29 0 26 -15 41 -41 41 -30 0 -49 -23 -49 -58 0 -21 -41 -44 -59 -33
-8 5 -3 11 14 19 19 9 25 19 25 42 0 27 -3 30 -30 30 -20 0 -35 -8 -46 -25
-21 -32 -33 -32 -27 -1 3 13 0 26 -5 30 -15 9 -44 -24 -38 -41 3 -8 -1 -24 -9
-36 -14 -20 -15 -19 -15 25 0 55 -16 71 -31 31 -31 -80 -33 -82 -37 -25 -3 51
-17 68 -29 36 -3 -9 -2 -37 3 -62 11 -56 34 -66 54 -25 l14 28 4 -27 c4 -35
24 -36 50 -3 25 32 45 32 66 0 17 -26 63 -34 82 -15 6 6 21 6 42 -2 28 -11 38
-10 64 5 28 16 32 16 40 3 17 -31 98 -6 98 30 0 18 -14 18 -30 -1 -13 -16 -36
-20 -43 -7 -2 4 -7 19 -11 34 -5 24 -3 27 26 30 17 2 33 9 36 17 3 9 -1 11
-16 7 -20 -7 -20 -6 -1 32 11 21 17 46 13 55 -9 24 -41 21 -59 -6z m21 -59
c-13 -18 -16 -19 -16 -6 0 9 5 29 12 45 11 27 12 27 15 6 3 -13 -3 -33 -11
-45z m-206 -57 c0 -13 -29 -35 -37 -28 -7 8 15 37 28 37 5 0 9 -4 9 -9z m98
-8 c-2 -10 -11 -19 -21 -21 -16 -3 -17 -1 -7 17 13 25 33 28 28 4z"/>
<path d="M90 670 c-21 -21 -26 -40 -11 -40 5 0 14 7 21 15 28 33 37 17 28 -47
-14 -105 -14 -123 1 -123 8 0 20 27 32 74 19 76 40 111 67 111 11 0 13 -9 9
-42 -3 -24 -9 -67 -13 -95 -6 -45 -4 -53 9 -53 10 0 19 11 22 28 27 127 42
162 72 162 16 0 16 -12 -3 -121 -12 -68 46 -92 95 -39 24 27 29 29 41 15 11
-13 9 -15 -9 -15 -23 0 -29 -25 -8 -33 34 -13 115 39 93 60 -4 4 -12 0 -17
-10 -6 -9 -15 -17 -21 -17 -6 0 -8 3 -5 7 4 3 0 17 -8 30 -9 13 -13 33 -10 43
12 38 -23 21 -47 -22 -24 -43 -52 -67 -64 -55 -4 4 -2 43 5 86 7 44 10 84 6
90 -18 30 -93 -1 -96 -40 -1 -8 -4 0 -8 16 -5 26 -10 30 -41 30 -30 0 -38 -5
-53 -35 -16 -31 -18 -32 -16 -10 0 14 1 31 0 38 -2 19 -49 14 -71 -8z"/>
<path d="M662 683 c-22 -9 -42 -61 -42 -112 0 -44 -3 -50 -22 -53 -27 -4 -36
-35 -13 -44 9 -4 27 -1 41 6 18 10 30 11 49 2 32 -15 72 -15 80 -2 4 6 13 5
25 -3 16 -9 24 -9 39 0 15 9 21 9 23 1 7 -19 26 0 33 31 3 16 12 34 19 40 10
8 13 2 12 -31 -1 -33 3 -43 17 -46 22 -4 57 24 57 46 0 13 -3 13 -18 -1 -29
-26 -35 -20 -28 28 7 41 5 45 -14 45 -12 0 -28 -13 -41 -32 l-20 -33 7 38 c9
54 -20 40 -32 -15 -5 -23 -15 -43 -23 -46 -11 -4 -13 4 -8 42 5 35 3 46 -7 46
-15 0 -26 -21 -26 -50 0 -28 -30 -40 -74 -30 -21 4 -40 11 -43 13 -2 3 -1 31
2 62 6 44 13 60 31 72 20 13 27 13 40 3 8 -7 12 -20 9 -28 -8 -21 5 -35 21
-21 17 14 18 51 2 67 -12 12 -71 15 -96 5z"/>
<path d="M986 675 c-9 -25 -7 -63 3 -70 12 -7 28 20 32 55 5 29 -25 41 -35 15z"/>
<path d="M1256 671 c-29 -32 -17 -72 29 -97 60 -33 68 -43 54 -60 -8 -10 -26
-14 -48 -12 -29 2 -37 8 -39 26 -5 32 -32 28 -32 -4 0 -33 25 -53 67 -54 45 0
82 19 89 47 9 36 -1 51 -53 76 -56 26 -66 51 -28 69 32 14 60 1 60 -28 0 -28
29 -23 33 5 5 33 -21 51 -73 51 -29 0 -47 -6 -59 -19z"/>
<path d="M785 640 c-4 -7 -3 -16 3 -22 14 -14 45 -2 40 15 -6 16 -34 21 -43 7z"/>
<path d="M1070 574 c-6 -15 -19 -38 -30 -51 -11 -14 -17 -30 -13 -36 4 -6 16
2 30 19 19 24 25 27 33 14 7 -11 5 -16 -10 -18 -24 -4 -26 -27 -4 -36 24 -9
88 25 93 49 3 20 3 20 -18 1 -12 -11 -24 -16 -28 -13 -3 4 -3 7 1 7 5 0 1 11
-8 25 -10 15 -14 34 -11 45 10 31 -24 25 -35 -6z"/>
</g>
</svg>
